<svg width="81" height="80" viewBox="0 0 81 80" fill="none" xmlns="http://www.w3.org/2000/svg">
<path d="M18.6 39.68C20.1733 39.9733 21.4667 40.76 22.48 42.04C23.4933 43.32 24 44.7867 24 46.44C24 47.9333 23.6267 49.2533 22.88 50.4C22.16 51.52 21.1067 52.4 19.72 53.04C18.3333 53.68 16.6933 54 14.8 54H2.76V26.08H14.28C16.1733 26.08 17.8 26.3867 19.16 27C20.5467 27.6133 21.5867 28.4667 22.28 29.56C23 30.6533 23.36 31.8933 23.36 33.28C23.36 34.9067 22.92 36.2667 22.04 37.36C21.1867 38.4533 20.04 39.2267 18.6 39.68ZM8.36 37.6H13.48C14.8133 37.6 15.84 37.3067 16.56 36.72C17.28 36.1067 17.64 35.24 17.64 34.12C17.64 33 17.28 32.1333 16.56 31.52C15.84 30.9067 14.8133 30.6 13.48 30.6H8.36V37.6ZM14 49.44C15.36 49.44 16.4133 49.12 17.16 48.48C17.9333 47.84 18.32 46.9333 18.32 45.76C18.32 44.56 17.92 43.6267 17.12 42.96C16.32 42.2667 15.24 41.92 13.88 41.92H8.36V49.44H14Z" fill="#FF0000"/>
<path d="M48.8231 34.72C48.8231 36.2133 48.4631 37.6133 47.7431 38.92C47.0498 40.2267 45.9431 41.28 44.4231 42.08C42.9298 42.88 41.0365 43.28 38.7431 43.28H34.0631V54H28.4631V26.08H38.7431C40.9031 26.08 42.7431 26.4533 44.2631 27.2C45.7831 27.9467 46.9165 28.9733 47.6631 30.28C48.4365 31.5867 48.8231 33.0667 48.8231 34.72ZM38.5031 38.76C40.0498 38.76 41.1965 38.4133 41.9431 37.72C42.6898 37 43.0631 36 43.0631 34.72C43.0631 32 41.5431 30.64 38.5031 30.64H34.0631V38.76H38.5031Z" fill="#5033FF"/>
<path d="M72.2391 34.48C71.5991 33.3067 70.7191 32.4133 69.5991 31.8C68.4791 31.1867 67.1724 30.88 65.6791 30.88C64.0257 30.88 62.5591 31.2533 61.2791 32C59.9991 32.7467 58.9991 33.8133 58.2791 35.2C57.5591 36.5867 57.1991 38.1867 57.1991 40C57.1991 41.8667 57.5591 43.4933 58.2791 44.88C59.0257 46.2667 60.0524 47.3333 61.3591 48.08C62.6657 48.8267 64.1857 49.2 65.9191 49.2C68.0524 49.2 69.7991 48.64 71.1591 47.52C72.5191 46.3733 73.4124 44.7867 73.8391 42.76H64.2391V38.48H79.3591V43.36C78.9857 45.3067 78.1857 47.1067 76.9591 48.76C75.7324 50.4133 74.1457 51.7467 72.1991 52.76C70.2791 53.7467 68.1191 54.24 65.7191 54.24C63.0257 54.24 60.5857 53.64 58.3991 52.44C56.2391 51.2133 54.5324 49.52 53.2791 47.36C52.0524 45.2 51.4391 42.7467 51.4391 40C51.4391 37.2533 52.0524 34.8 53.2791 32.64C54.5324 30.4533 56.2391 28.76 58.3991 27.56C60.5857 26.3333 63.0124 25.72 65.6791 25.72C68.8257 25.72 71.5591 26.4933 73.8791 28.04C76.1991 29.56 77.7991 31.7067 78.6791 34.48H72.2391Z" fill="#68FF33"/>
</svg>
